<svg width="201" height="200" xmlns="http://www.w3.org/2000/svg" xmlns:xlink="http://www.w3.org/1999/xlink"><defs><path d="M.06 103.364v-6.97C1.906 42.846 46.132 0 100.418 0c55.46 0 100.419 44.717 100.419 99.879 0 55.161-44.959 99.878-100.419 99.878-54.286 0-98.512-42.846-100.358-96.393z" id="a"/></defs><g fill="none" fill-rule="evenodd"><mask id="b" fill="#fff"><use xlink:href="#a"/></mask><path fill="#CAA470" mask="url(#b)" d="M.06 199.76h200.88V-.04H.06z"/><path d="M58.641 135.804v-54.03l41.403-28.298 41.404 28.298v54.03H58.641zm51.338-16.072H90.597v24.209H48.59V76.403l51.693-35.372 51.695 35.372v67.538h-41.999v-24.209z" stroke="#0E1011" stroke-width="2.699"/><path d="M151.313 143.277l-9.679-7.767M151.315 76.639l-9.205 4.889M49.731 143.277l9.205-7.767M49.252 76.639l9.205 4.889M100.044 53.476v-10.31" stroke="#0E1011" stroke-width="2.699" stroke-linecap="square"/></g></svg>
